ffmpeg version 3.4.8-0ubuntu0.2 Copyright (c) 2000-2020 the FFmpeg developers
  built with gcc 7 (Ubuntu 7.5.0-3ubuntu1~18.04)
  configuration: --prefix=/usr --extra-version=0ubuntu0.2 --toolchain=hardened --libdir=/usr/lib/x86_64-linux-gnu --incdir=/usr/include/x86_64-linux-gnu --enable-gpl --disable-stripping --enable-avresample --enable-avisynth --enable-gnutls --enable-ladspa --enable-libass --enable-libbluray --enable-libbs2b --enable-libcaca --enable-libcdio --enable-libflite --enable-libfontconfig --enable-libfreetype --enable-libfribidi --enable-libgme --enable-libgsm --enable-libmp3lame --enable-libmysofa --enable-libopenjpeg --enable-libopenmpt --enable-libopus --enable-libpulse --enable-librubberband --enable-librsvg --enable-libshine --enable-libsnappy --enable-libsoxr --enable-libspeex --enable-libssh --enable-libtheora --enable-libtwolame --enable-libvorbis --enable-libvpx --enable-libwavpack --enable-libwebp --enable-libx265 --enable-libxml2 --enable-libxvid --enable-libzmq --enable-libzvbi --enable-omx --enable-openal --enable-opengl --enable-sdl2 --enable-libdc1394 --enable-libdrm --enable-libiec61883 --enable-chromaprint --enable-frei0r --enable-libopencv --enable-libx264 --enable-shared
  libavutil      55. 78.100 / 55. 78.100
  libavcodec     57.107.100 / 57.107.100
  libavformat    57. 83.100 / 57. 83.100
  libavdevice    57. 10.100 / 57. 10.100
  libavfilter     6.107.100 /  6.107.100
  libavresample   3.  7.  0 /  3.  7.  0
  libswscale      4.  8.100 /  4.  8.100
  libswresample   2.  9.100 /  2.  9.100
  libpostproc    54.  7.100 / 54.  7.100
[rawvideo @ 0x5562887a4a20] Estimating duration from bitrate, this may be inaccurate
Input #0, rawvideo, from '../../SVC-Encoder-20220109T061506Z-001/SVC-Encoder/Dataset/RollerCoaster/ERP_8x8/tile_yuv/Tile_61_480x240.yuv':
  Duration: 00:00:10.00, start: 0.000000, bitrate: 41472 kb/s
    Stream #0:0: Video: rawvideo (I420 / 0x30323449), yuv420p, 480x240, 41472 kb/s, 30 tbr, 30 tbn, 30 tbc
Stream mapping:
  Stream #0:0 -> #0:0 (rawvideo (native) -> h264 (libx264))
Press [q] to stop, [?] for help
[libx264 @ 0x5562887b1c60] using cpu capabilities: MMX2 SSE2Fast LZCNT SSSE3 SSE4.2 AVX
[libx264 @ 0x5562887b1c60] profile High, level 2.1
Output #0, rawvideo, to 'RollerCoaster_Tile_61_480x240_x264_QP_36.h264':
  Metadata:
    encoder         : Lavf57.83.100
    Stream #0:0: Video: h264 (libx264), yuv420p, 480x240, q=-1--1, 30 fps, 30 tbn, 30 tbc
    Metadata:
      encoder         : Lavc57.107.100 libx264
    Side data:
      cpb: bitrate max/min/avg: 0/0/0 buffer size: 0 vbv_delay: -1
frame=  217 fps=0.0 q=42.0 PSNR=Y:nan U:nan V:nan *:nan size=      28kB time=00:00:05.80 bitrate=  39.8kbits/s speed=11.6x    frame=  300 fps=0.0 q=42.0 LPSNR=Y:inf U:inf V:inf *:inf size=      47kB time=00:00:09.93 bitrate=  38.5kbits/s speed=14.3x    
video:47kB audio:0kB subtitle:0kB other streams:0kB global headers:0kB muxing overhead: 0.000000%
[libx264 @ 0x5562887b1c60] frame I:2     Avg QP:34.49  size:  3516  PSNR Mean Y:38.13 U:45.53 V:38.02 Avg:38.74 Global:38.72
[libx264 @ 0x5562887b1c60] frame P:78    Avg QP:34.84  size:   265  PSNR Mean Y:37.81 U:44.75 V:39.28 Avg:38.67 Global:38.65
[libx264 @ 0x5562887b1c60] frame B:220   Avg QP:41.54  size:    92  PSNR Mean Y:37.63 U:44.77 V:39.22 Avg:38.51 Global:38.51
[libx264 @ 0x5562887b1c60] consecutive B-frames:  0.7%  4.0%  2.0% 93.3%
[libx264 @ 0x5562887b1c60] mb I  I16..4: 20.8% 45.7% 33.6%
[libx264 @ 0x5562887b1c60] mb P  I16..4:  0.3%  0.1%  0.0%  P16..4: 28.0%  1.8%  0.1%  0.0%  0.0%    skip:69.7%
[libx264 @ 0x5562887b1c60] mb B  I16..4:  0.0%  0.0%  0.0%  B16..8: 17.8%  0.2%  0.0%  direct: 0.0%  skip:81.9%  L0:47.6% L1:52.4% BI: 0.1%
[libx264 @ 0x5562887b1c60] 8x8 transform intra:43.0% inter:95.3%
[libx264 @ 0x5562887b1c60] coded y,uvDC,uvAC intra: 32.5% 52.9% 23.7% inter: 0.4% 0.7% 0.0%
[libx264 @ 0x5562887b1c60] i16 v,h,dc,p: 19% 74%  5%  2%
[libx264 @ 0x5562887b1c60] i8 v,h,dc,ddl,ddr,vr,hd,vl,hu:  2% 44% 48%  1%  0%  0%  2%  0%  3%
[libx264 @ 0x5562887b1c60] i4 v,h,dc,ddl,ddr,vr,hd,vl,hu:  4% 77% 11%  2%  1%  0%  2%  0%  4%
[libx264 @ 0x5562887b1c60] i8c dc,h,v,p: 30% 65%  1%  4%
[libx264 @ 0x5562887b1c60] Weighted P-Frames: Y:2.6% UV:0.0%
[libx264 @ 0x5562887b1c60] ref P L0: 47.9% 15.1% 26.9%  9.9%  0.2%
[libx264 @ 0x5562887b1c60] ref B L0: 57.2% 33.8%  8.9%
[libx264 @ 0x5562887b1c60] ref B L1: 76.7% 23.3%
[libx264 @ 0x5562887b1c60] PSNR Mean Y:37.683 U:44.767 V:39.229 Avg:38.556 Global:38.545 kb/s:38.29
